<svg version="1.1" xmlns="http://www.w3.org/2000/svg" xmlns:xlink="http://www.w3.org/1999/xlink" width="558.97265625" height="184"><defs/><g><g transform="translate(-78,-54) scale(1,1)"><rect fill="#C0C0C0" stroke="none" x="121" y="87" width="104.07763671875" height="44" opacity="0.2"/></g><g transform="translate(-78,-54) scale(1,1)"><rect fill="#ffffff" stroke="none" x="114" y="80" width="104.07763671875" height="44"/></g><g transform="translate(-78,-54) scale(1,1)"><path fill="none" stroke="#000000" d="M 114 80 L 218.07763671875 80 L 218.07763671875 124 L 114 124 L 114 80 Z Z" stroke-miterlimit="10"/></g><g transform="translate(-78,-54) scale(1,1)"><rect fill="#ffffff" stroke="none" x="104" y="87" width="20" height="10"/></g><g transform="translate(-78,-54) scale(1,1)"><path fill="none" stroke="#000000" d="M 104 87 L 124 87 L 124 97 L 104 97 L 104 87 Z Z" stroke-miterlimit="10"/></g><g transform="translate(-78,-54) scale(1,1)"><rect fill="#ffffff" stroke="none" x="104" y="107" width="20" height="10"/></g><g transform="translate(-78,-54) scale(1,1)"><path fill="none" stroke="#000000" d="M 104 107 L 124 107 L 124 117 L 104 117 L 104 107 Z Z" stroke-miterlimit="10"/></g><g transform="translate(-78,-54) scale(1,1)"><g><path fill="none" stroke="none"/><text fill="#000000" stroke="none" font-family="Arial" font-size="13px" font-style="normal" font-weight="bold" text-decoration="none" x="133.105224609375" y="99.5">eden-registry</text></g></g><g transform="translate(-78,-54) scale(1,1)"><rect fill="#C0C0C0" stroke="none" x="105" y="191" width="131.70263671875" height="44" opacity="0.2"/></g><g transform="translate(-78,-54) scale(1,1)"><rect fill="#ffffff" stroke="none" x="98" y="184" width="131.70263671875" height="44"/></g><g transform="translate(-78,-54) scale(1,1)"><path fill="none" stroke="#000000" d="M 98 184 L 229.70263671875 184 L 229.70263671875 228 L 98 228 L 98 184 Z Z" stroke-miterlimit="10"/></g><g transform="translate(-78,-54) scale(1,1)"><rect fill="#ffffff" stroke="none" x="88" y="191" width="20" height="10"/></g><g transform="translate(-78,-54) scale(1,1)"><path fill="none" stroke="#000000" d="M 88 191 L 108 191 L 108 201 L 88 201 L 88 191 Z Z" stroke-miterlimit="10"/></g><g transform="translate(-78,-54) scale(1,1)"><rect fill="#ffffff" stroke="none" x="88" y="211" width="20" height="10"/></g><g transform="translate(-78,-54) scale(1,1)"><path fill="none" stroke="#000000" d="M 88 211 L 108 211 L 108 221 L 88 221 L 88 211 Z Z" stroke-miterlimit="10"/></g><g transform="translate(-78,-54) scale(1,1)"><g><path fill="none" stroke="none"/><text fill="#000000" stroke="none" font-family="Arial" font-size="13px" font-style="normal" font-weight="bold" text-decoration="none" x="116.82275390625" y="203.5">eden-configserver</text></g></g><g transform="translate(-78,-54) scale(1,1)"><rect fill="#C0C0C0" stroke="none" x="329" y="191" width="98.44091796875" height="44" opacity="0.2"/></g><g transform="translate(-78,-54) scale(1,1)"><rect fill="#ffffff" stroke="none" x="322" y="184" width="98.44091796875" height="44"/></g><g transform="translate(-78,-54) scale(1,1)"><path fill="none" stroke="#000000" d="M 322 184 L 420.44091796875 184 L 420.44091796875 228 L 322 228 L 322 184 Z Z" stroke-miterlimit="10"/></g><g transform="translate(-78,-54) scale(1,1)"><rect fill="#ffffff" stroke="none" x="312" y="191" width="20" height="10"/></g><g transform="translate(-78,-54) scale(1,1)"><path fill="none" stroke="#000000" d="M 312 191 L 332 191 L 332 201 L 312 201 L 312 191 Z Z" stroke-miterlimit="10"/></g><g transform="translate(-78,-54) scale(1,1)"><rect fill="#ffffff" stroke="none" x="312" y="211" width="20" height="10"/></g><g transform="translate(-78,-54) scale(1,1)"><path fill="none" stroke="#000000" d="M 312 211 L 332 211 L 332 221 L 312 221 L 312 211 Z Z" stroke-miterlimit="10"/></g><g transform="translate(-78,-54) scale(1,1)"><g><path fill="none" stroke="none"/><text fill="#000000" stroke="none" font-family="Arial" font-size="13px" font-style="normal" font-weight="bold" text-decoration="none" x="348.7509765625" y="203.5">eden-uaa</text></g></g><g transform="translate(-78,-54) scale(1,1)"><rect fill="#C0C0C0" stroke="none" x="529" y="191" width="104.97265625" height="44" opacity="0.2"/></g><g transform="translate(-78,-54) scale(1,1)"><rect fill="#ffffff" stroke="none" x="522" y="184" width="104.97265625" height="44"/></g><g transform="translate(-78,-54) scale(1,1)"><path fill="none" stroke="#000000" d="M 522 184 L 626.97265625 184 L 626.97265625 228 L 522 228 L 522 184 Z Z" stroke-miterlimit="10"/></g><g transform="translate(-78,-54) scale(1,1)"><rect fill="#ffffff" stroke="none" x="512" y="191" width="20" height="10"/></g><g transform="translate(-78,-54) scale(1,1)"><path fill="none" stroke="#000000" d="M 512 191 L 532 191 L 532 201 L 512 201 L 512 191 Z Z" stroke-miterlimit="10"/></g><g transform="translate(-78,-54) scale(1,1)"><rect fill="#ffffff" stroke="none" x="512" y="211" width="20" height="10"/></g><g transform="translate(-78,-54) scale(1,1)"><path fill="none" stroke="#000000" d="M 512 211 L 532 211 L 532 221 L 512 221 L 512 211 Z Z" stroke-miterlimit="10"/></g><g transform="translate(-78,-54) scale(1,1)"><g><path fill="none" stroke="none"/><text fill="#000000" stroke="none" font-family="Arial" font-size="13px" font-style="normal" font-weight="bold" text-decoration="none" x="538.65185546875" y="203.5">eden-gateway</text></g></g><g transform="translate(-78,-54) scale(1,1)"><path fill="none" stroke="#000000" d="M 159 183 L 160 125" stroke-miterlimit="10" stroke-dasharray="3"/></g><g transform="translate(-78,-54) scale(1,1)"><path fill="none" stroke="#000000" d="M 164.0336997293381 135.23373179702975 L 160 125 L 155.6159152813612 135.08859758240945" stroke-miterlimit="10"/></g><g transform="translate(-78,-54) scale(1,1)"><path fill="none" stroke="#000000" d="M 311 206 L 231 206" stroke-miterlimit="10" stroke-dasharray="3"/></g><g transform="translate(-78,-54) scale(1,1)"><path fill="none" stroke="#000000" d="M 241.16267485762415 201.790482243984 L 231 206 L 241.16267485762415 210.209517756016" stroke-miterlimit="10"/></g><g transform="translate(-78,-54) scale(1,1)"><path fill="none" stroke="#000000" d="M 511 206 L 421 206" stroke-miterlimit="10" stroke-dasharray="3"/></g><g transform="translate(-78,-54) scale(1,1)"><path fill="none" stroke="#000000" d="M 431.16267485762415 201.790482243984 L 421 206 L 431.16267485762415 210.209517756016" stroke-miterlimit="10"/></g><g transform="translate(-78,-54) scale(1,1)"><path fill="#C0C0C0" stroke="none" d="M 357.337744140625 71 L 384.777744140625 71 L 396.53774414062497 82.75999999999999 L 396.53774414062497 120 L 357.337744140625 120" opacity="0.2"/></g><g transform="translate(-78,-54) scale(1,1)"><path fill="#ffffff" stroke="none" d="M 350.337744140625 64 L 377.77774414062503 64 L 389.537744140625 75.76000000000002 L 389.537744140625 113 L 350.337744140625 113"/></g><g transform="translate(-78,-54) scale(1,1)"><path fill="none" stroke="#000000" d="M 350.337744140625 64 L 377.77774414062503 64 L 389.537744140625 75.76000000000002 L 389.537744140625 113 L 350.337744140625 113 L 350.337744140625 64" stroke-miterlimit="10"/></g><g transform="translate(-78,-54) scale(1,1)"><path fill="none" stroke="#000000" d="M 377.77774414062503 64 L 377.77774414062503 75.76000000000002 L 389.537744140625 75.76000000000002 L 377.77774414062503 64" stroke-miterlimit="10"/></g><g transform="translate(-78,-54) scale(1,1)"><g><path fill="none" stroke="none"/><text fill="#000000" stroke="none" font-family="Arial" font-size="13px" font-style="normal" font-weight="bold" text-decoration="none" x="320.794189453125" y="132.5">eden-spring-boot</text></g></g><g transform="translate(-78,-54) scale(1,1)"><path fill="none" stroke="#000000" d="M 219 102 L 311 101" stroke-miterlimit="10" stroke-dasharray="3"/></g><g transform="translate(-78,-54) scale(1,1)"><path fill="none" stroke="#000000" d="M 300.88367836130067 105.31972643837351 L 311 101 L 300.79217251116677 96.90118822605619" stroke-miterlimit="10"/></g></g></svg>